<svg width="27" height="22" viewBox="0 0 27 22" fill="none" xmlns="http://www.w3.org/2000/svg">
<path d="M26.8125 11.7031C27.3281 10.7188 26.5781 9.5 25.4531 9.5H6.89062C6.32812 9.5 5.8125 9.82812 5.57812 10.3438L2.25 17V3.5C2.25 3.125 2.57812 2.75 3 2.75H8.48438C8.67188 2.75 8.85938 2.84375 9 2.98438L12 5.75H19.5C19.875 5.75 20.25 6.125 20.25 6.5V8H22.5V6.5C22.5 4.85938 21.1406 3.5 19.5 3.5H12.8906L10.5938 1.39062C10.0312 0.828125 9.28125 0.5 8.48438 0.5H3C1.3125 0.5 0 1.85938 0 3.5V18.5C0 20.1875 1.3125 21.5 3 21.5H20.9531C21.5625 21.5 22.0781 21.2188 22.3125 20.7031L26.8125 11.7031Z" fill="#E4E4E4"/>
</svg>
