<svg width="20" height="20" viewBox="0 0 20 20" fill="none" xmlns="http://www.w3.org/2000/svg">
<circle cx="10" cy="10" r="9" fill="#05203D" stroke="white" stroke-width="2"/>
<path d="M12.5 13V12.6719C12.5 12.2344 12.3594 11.8281 12.0938 11.4688L11 10L12.0938 8.54688C12.3594 8.1875 12.5 7.78125 12.5 7.34375V7C12.7656 7 13 6.78125 13 6.5C13 6.23438 12.7656 6 12.5 6H7.5C7.21875 6 7 6.23438 7 6.5C7 6.78125 7.21875 7 7.5 7V7.34375C7.5 7.78125 7.625 8.1875 7.89062 8.54688L9 10L7.89062 11.4688C7.625 11.8281 7.5 12.2344 7.5 12.6719V13C7.21875 13 7 13.2344 7 13.5C7 13.7812 7.21875 14 7.5 14H12.5C12.7656 14 13 13.7812 13 13.5C13 13.2344 12.7656 13 12.5 13ZM8.6875 7.9375C8.5625 7.76562 8.5 7.5625 8.5 7.34375V7H11.5V7.34375C11.5 7.5625 11.4219 7.76562 11.2969 7.9375L10 9.67188L8.6875 7.9375Z" fill="white"/>
</svg>
