<svg width="100" height="100" viewBox="0 0 100 100" fill="none" xmlns="http://www.w3.org/2000/svg">
<path d="M90.5 39L98.5 46.5V69.5L93 73.5H82.5L81.5 64H18.5L17.5 72H2.5L1.5 46.5L11.5 39H90.5Z" fill="#359EAD" stroke="black"/>
<path d="M17.1875 31.25C17.9688 31.25 18.75 30.6641 18.75 29.6875V7.8125C18.75 5.27344 20.7031 3.125 23.4375 3.125H67.5781C68.9453 3.125 70.1172 3.71094 70.8984 4.6875L79.6875 13.4766C80.6641 14.2578 81.25 15.4297 81.25 16.7969V29.6875C81.25 30.6641 81.8359 31.25 82.8125 31.25C83.5938 31.25 84.375 30.6641 84.375 29.6875V16.7969C84.375 14.6484 83.3984 12.6953 82.0312 11.1328L73.2422 2.34375C71.6797 0.976562 69.7266 0 67.5781 0H23.4375C18.9453 0 15.625 3.51562 15.625 7.8125V29.6875C15.625 30.6641 16.2109 31.25 17.1875 31.25ZM87.5 37.5H12.5C5.46875 37.5 0 43.1641 0 50V68.75C0 72.2656 2.73438 75 6.25 75H15.625V95.3125C15.625 98.0469 17.5781 100 20.3125 100H79.6875C82.2266 100 84.375 98.0469 84.375 95.3125V75H93.75C97.0703 75 100 72.2656 100 68.75V50C100 43.1641 94.3359 37.5 87.5 37.5ZM81.25 95.3125C81.25 96.2891 80.4688 96.875 79.6875 96.875H20.3125C19.3359 96.875 18.75 96.2891 18.75 95.3125V67.1875C18.75 66.4062 19.3359 65.625 20.3125 65.625H79.6875C80.4688 65.625 81.25 66.4062 81.25 67.1875V95.3125ZM96.875 68.75C96.875 70.5078 95.3125 71.875 93.75 71.875H84.375V67.1875C84.375 64.6484 82.2266 62.5 79.6875 62.5H20.3125C17.5781 62.5 15.625 64.6484 15.625 67.1875V71.875H6.25C4.49219 71.875 3.125 70.5078 3.125 68.75V50C3.125 44.9219 7.22656 40.625 12.5 40.625H87.5C92.5781 40.625 96.875 44.9219 96.875 50V68.75ZM84.375 50C82.6172 50 81.25 51.5625 81.25 53.125C81.25 54.8828 82.6172 56.25 84.375 56.25C85.9375 56.25 87.5 54.8828 87.5 53.125C87.5 51.5625 85.9375 50 84.375 50Z" fill="black"/>
</svg>
