<svg width="22" height="34" viewBox="0 0 22 34" fill="none" xmlns="http://www.w3.org/2000/svg">
<path d="M0.281651 24.1719C-0.0938835 23.7734 -0.0938835 23.043 0.281651 22.6445C0.657185 22.2461 1.34566 22.2461 1.7212 22.6445L8.98151 30.4141V5.3125C8.98151 2.39062 11.2347 0 13.9886 0H20.9986C21.5619 0 22 0.53125 22 1.0625C22 1.66016 21.5619 2.125 20.9986 2.125H13.9886C12.3613 2.125 10.9844 3.58594 10.9844 5.3125V30.4141L18.3073 22.6445C18.6828 22.2461 19.3713 22.2461 19.7468 22.6445C20.1223 23.043 20.1223 23.7734 19.7468 24.1719L10.734 33.7344C10.5462 33.9336 10.2959 34 9.98293 34C9.73258 34 9.48222 33.9336 9.29445 33.7344L0.281651 24.1719Z" fill="#004046"/>
</svg>
