<svg width="145" height="21" viewBox="0 0 145 21" fill="none" xmlns="http://www.w3.org/2000/svg">
<path d="M77.3697 6.3C79.0099 6.3 80.231 6.832 81.0329 7.896C81.8348 8.94133 82.2357 10.2947 82.2357 11.956V19.88C82.2357 20.1227 82.1537 20.328 81.9897 20.496C81.8439 20.6453 81.6525 20.72 81.4156 20.72C81.1787 20.72 80.9782 20.6453 80.8142 20.496C80.6684 20.328 80.5955 20.1227 80.5955 19.88V11.956C80.5955 10.7427 80.313 9.76267 79.748 9.016C79.183 8.25067 78.2991 7.868 77.0963 7.868C76.3308 7.868 75.6018 8.05467 74.9093 8.428C74.2349 8.80133 73.6882 9.30533 73.269 9.94C72.8498 10.556 72.6403 11.228 72.6403 11.956V19.88C72.6403 20.1227 72.5582 20.328 72.3942 20.496C72.2484 20.6453 72.0571 20.72 71.8201 20.72C71.5832 20.72 71.3827 20.6453 71.2187 20.496C71.0729 20.328 71 20.1227 71 19.88V0.839999C71 0.597332 71.0729 0.401333 71.2187 0.252C71.3827 0.084 71.5832 0 71.8201 0C72.0571 0 72.2484 0.084 72.3942 0.252C72.5582 0.401333 72.6403 0.597332 72.6403 0.839999V9.044C73.1323 8.24133 73.8158 7.588 74.6906 7.084C75.5654 6.56133 76.4584 6.3 77.3697 6.3Z" fill="black"/>
<path d="M98.3474 12.74C98.3474 12.964 98.2654 13.16 98.1013 13.328C97.9373 13.4773 97.746 13.552 97.5273 13.552H87.1937C87.1937 14.672 87.4124 15.68 87.8498 16.576C88.3054 17.4533 88.9433 18.1533 89.7634 18.676C90.6017 19.18 91.5859 19.432 92.7158 19.432C93.5906 19.432 94.3743 19.2453 95.0669 18.872C95.7594 18.4987 96.3153 18.0227 96.7345 17.444C96.9349 17.276 97.1263 17.192 97.3086 17.192C97.4908 17.192 97.6548 17.2667 97.8006 17.416C97.9464 17.5653 98.0193 17.7333 98.0193 17.92C98.0193 18.1253 97.9282 18.3213 97.746 18.508C97.1628 19.236 96.4246 19.8333 95.5316 20.3C94.6568 20.7667 93.7273 21 92.7432 21C91.3399 21 90.1006 20.692 89.0253 20.076C87.95 19.46 87.1116 18.6013 86.5102 17.5C85.9088 16.38 85.6081 15.092 85.6081 13.636C85.6081 12.1053 85.8997 10.7707 86.4829 9.632C87.0843 8.47467 87.8771 7.59733 88.8613 7C89.8454 6.384 90.8933 6.076 92.0051 6.076C93.0986 6.076 94.1192 6.33733 95.0669 6.86C96.0328 7.38267 96.8165 8.148 97.4179 9.156C98.0193 10.164 98.3292 11.3587 98.3474 12.74ZM92.0051 7.7C90.948 7.7 89.9639 8.07333 89.0526 8.82C88.1596 9.56667 87.5855 10.64 87.3303 12.04H96.6525V11.816C96.5613 10.976 96.288 10.248 95.8323 9.632C95.3767 8.99733 94.8026 8.52133 94.1101 8.204C93.4357 7.868 92.7341 7.7 92.0051 7.7Z" fill="black"/>
<path d="M113.18 6.412C113.417 6.412 113.608 6.496 113.754 6.664C113.918 6.832 114 7.03733 114 7.28V19.88C114 20.1227 113.918 20.328 113.754 20.496C113.608 20.6453 113.417 20.72 113.18 20.72C112.943 20.72 112.743 20.6453 112.579 20.496C112.433 20.328 112.36 20.1227 112.36 19.88V18.004C111.904 18.844 111.221 19.5533 110.309 20.132C109.398 20.7107 108.405 21 107.33 21C106.109 21 105.006 20.6733 104.022 20.02C103.056 19.3667 102.29 18.4707 101.725 17.332C101.179 16.1933 100.905 14.9147 100.905 13.496C100.905 12.0773 101.188 10.808 101.753 9.688C102.318 8.54933 103.083 7.66267 104.049 7.028C105.033 6.39333 106.118 6.076 107.302 6.076C108.396 6.076 109.398 6.34667 110.309 6.888C111.221 7.42933 111.904 8.13867 112.36 9.016V7.28C112.36 7.03733 112.433 6.832 112.579 6.664C112.743 6.496 112.943 6.412 113.18 6.412ZM107.494 19.432C108.441 19.432 109.289 19.18 110.036 18.676C110.802 18.1533 111.394 17.444 111.813 16.548C112.25 15.6333 112.469 14.616 112.469 13.496C112.469 12.4133 112.25 11.424 111.813 10.528C111.394 9.632 110.802 8.932 110.036 8.428C109.289 7.90533 108.441 7.644 107.494 7.644C106.546 7.644 105.689 7.896 104.924 8.4C104.177 8.904 103.584 9.604 103.147 10.5C102.728 11.3773 102.518 12.376 102.518 13.496C102.518 14.616 102.728 15.6333 103.147 16.548C103.566 17.444 104.149 18.1533 104.897 18.676C105.662 19.18 106.528 19.432 107.494 19.432Z" fill="black"/>
<path d="M120.084 19.88C120.084 20.1227 120.002 20.328 119.838 20.496C119.693 20.6453 119.501 20.72 119.264 20.72C119.027 20.72 118.827 20.6453 118.663 20.496C118.517 20.328 118.444 20.1227 118.444 19.88V0.839999C118.444 0.597332 118.517 0.401333 118.663 0.252C118.827 0.084 119.027 0 119.264 0C119.501 0 119.693 0.084 119.838 0.252C120.002 0.401333 120.084 0.597332 120.084 0.839999V19.88Z" fill="black"/>
<path d="M127.234 8.036V17.416C127.234 18.1253 127.362 18.6107 127.617 18.872C127.872 19.1147 128.209 19.236 128.628 19.236C128.738 19.236 128.874 19.2173 129.038 19.18C129.203 19.124 129.33 19.096 129.421 19.096C129.585 19.096 129.722 19.1707 129.831 19.32C129.959 19.4507 130.023 19.6093 130.023 19.796C130.023 20.0573 129.877 20.2813 129.585 20.468C129.294 20.636 128.947 20.72 128.546 20.72C128.054 20.72 127.617 20.6733 127.234 20.58C126.851 20.4867 126.478 20.2067 126.113 19.74C125.767 19.2733 125.594 18.5267 125.594 17.5V8.036H123.598C123.38 8.036 123.188 7.96133 123.024 7.812C122.878 7.66267 122.806 7.476 122.806 7.252C122.806 7.028 122.878 6.84133 123.024 6.692C123.188 6.54267 123.38 6.468 123.598 6.468H125.594V3.36C125.594 3.11733 125.667 2.92133 125.813 2.772C125.977 2.604 126.177 2.52 126.414 2.52C126.651 2.52 126.842 2.604 126.988 2.772C127.152 2.92133 127.234 3.11733 127.234 3.36V6.468H129.968C130.168 6.468 130.342 6.552 130.487 6.72C130.651 6.888 130.733 7.07467 130.733 7.28C130.733 7.504 130.661 7.69067 130.515 7.84C130.369 7.97067 130.187 8.036 129.968 8.036H127.234Z" fill="black"/>
<path d="M140.134 6.3C141.774 6.3 142.995 6.832 143.797 7.896C144.599 8.94133 145 10.2947 145 11.956V19.88C145 20.1227 144.918 20.328 144.754 20.496C144.608 20.6453 144.417 20.72 144.18 20.72C143.943 20.72 143.742 20.6453 143.578 20.496C143.433 20.328 143.36 20.1227 143.36 19.88V11.956C143.36 10.7427 143.077 9.76267 142.512 9.016C141.947 8.25067 141.063 7.868 139.861 7.868C139.095 7.868 138.366 8.05467 137.674 8.428C136.999 8.80133 136.452 9.30533 136.033 9.94C135.614 10.556 135.405 11.228 135.405 11.956V19.88C135.405 20.1227 135.323 20.328 135.158 20.496C135.013 20.6453 134.821 20.72 134.584 20.72C134.347 20.72 134.147 20.6453 133.983 20.496C133.837 20.328 133.764 20.1227 133.764 19.88V0.839999C133.764 0.597332 133.837 0.401333 133.983 0.252C134.147 0.084 134.347 0 134.584 0C134.821 0 135.013 0.084 135.158 0.252C135.323 0.401333 135.405 0.597332 135.405 0.839999V9.044C135.897 8.24133 136.58 7.588 137.455 7.084C138.33 6.56133 139.223 6.3 140.134 6.3Z" fill="black"/>
<path d="M13.9288 13.1622C13.9105 13.5946 13.7376 13.9459 13.4098 14.2162C13.0821 14.4865 12.6997 14.6216 12.2628 14.6216H3.25004C3.46853 15.6847 3.96924 16.5225 4.75216 17.1351C5.53509 17.7297 6.41815 18.027 7.40136 18.027C8.14787 18.027 8.73051 17.964 9.14928 17.8378C9.56805 17.6937 9.89579 17.5496 10.1325 17.4054C10.3874 17.2432 10.5604 17.1351 10.6514 17.0811C10.9791 16.9189 11.2887 16.8378 11.58 16.8378C11.9623 16.8378 12.2901 16.973 12.5632 17.2432C12.8363 17.5135 12.9729 17.8288 12.9729 18.1892C12.9729 18.6757 12.718 19.1171 12.2081 19.5135C11.6983 19.9279 11.0156 20.2793 10.1598 20.5676C9.30404 20.8559 8.43919 21 7.56523 21C6.03579 21 4.69754 20.6847 3.55047 20.0541C2.4216 19.4234 1.54764 18.5586 0.928584 17.4595C0.309528 16.3423 0 15.0901 0 13.7027C0 12.1532 0.327735 10.7928 0.983206 9.62162C1.63868 8.45045 2.50353 7.55856 3.57778 6.94594C4.65202 6.31531 5.7991 6 7.019 6C8.2207 6 9.34956 6.32432 10.4056 6.97297C11.4798 7.62162 12.3356 8.4955 12.9729 9.59459C13.6101 10.6937 13.9288 11.8829 13.9288 13.1622ZM7.019 8.97297C4.90693 8.97297 3.65971 9.95496 3.27735 11.9189H10.4329V11.7297C10.3601 10.973 9.98683 10.3243 9.31315 9.78378C8.63947 9.24324 7.87475 8.97297 7.019 8.97297Z" fill="black"/>
<path d="M24.2546 6C24.8008 6 25.256 6.15315 25.6201 6.45946C26.0025 6.76577 26.1937 7.12613 26.1937 7.54054C26.1937 8.0991 26.048 8.52252 25.7567 8.81081C25.4654 9.08108 25.1194 9.21622 24.7188 9.21622C24.4457 9.21622 24.1362 9.15315 23.7903 9.02703C23.7356 9.00901 23.6082 8.97297 23.4079 8.91892C23.2258 8.86486 23.0255 8.83784 22.8071 8.83784C22.3337 8.83784 21.8785 8.98198 21.4415 9.27027C21.0045 9.55856 20.6404 10 20.349 10.5946C20.0759 11.1712 19.9394 11.8649 19.9394 12.6757V19.0811C19.9394 19.5495 19.7846 19.9459 19.4751 20.2703C19.1656 20.5766 18.7741 20.7297 18.3007 20.7297C17.8273 20.7297 17.4358 20.5766 17.1263 20.2703C16.8168 19.9459 16.662 19.5495 16.662 19.0811V7.91892C16.662 7.45045 16.8168 7.06306 17.1263 6.75676C17.4358 6.43243 17.8273 6.27027 18.3007 6.27027C18.7741 6.27027 19.1656 6.43243 19.4751 6.75676C19.7846 7.06306 19.9394 7.45045 19.9394 7.91892V8.27027C20.3581 7.53153 20.959 6.97297 21.7419 6.59459C22.5248 6.1982 23.3624 6 24.2546 6Z" fill="black"/>
<path d="M41 13.1622C40.9818 13.5946 40.8088 13.9459 40.4811 14.2162C40.1534 14.4865 39.771 14.6216 39.334 14.6216H30.3213C30.5398 15.6847 31.0405 16.5225 31.8234 17.1351C32.6063 17.7297 33.4894 18.027 34.4726 18.027C35.2191 18.027 35.8018 17.964 36.2205 17.8378C36.6393 17.6937 36.967 17.5496 37.2037 17.4054C37.4586 17.2432 37.6316 17.1351 37.7226 17.0811C38.0504 16.9189 38.3599 16.8378 38.6512 16.8378C39.0336 16.8378 39.3613 16.973 39.6344 17.2432C39.9076 17.5135 40.0441 17.8288 40.0441 18.1892C40.0441 18.6757 39.7892 19.1171 39.2794 19.5135C38.7696 19.9279 38.0868 20.2793 37.231 20.5676C36.3753 20.8559 35.5104 21 34.6365 21C33.107 21 31.7688 20.6847 30.6217 20.0541C29.4928 19.4234 28.6189 18.5586 27.9998 17.4595C27.3808 16.3423 27.0712 15.0901 27.0712 13.7027C27.0712 12.1532 27.399 10.7928 28.0545 9.62162C28.7099 8.45045 29.5748 7.55856 30.649 6.94594C31.7233 6.31531 32.8703 6 34.0902 6C35.2919 6 36.4208 6.32432 37.4768 6.97297C38.5511 7.62162 39.4068 8.4955 40.0441 9.59459C40.6814 10.6937 41 11.8829 41 13.1622ZM34.0902 8.97297C31.9782 8.97297 30.731 9.95496 30.3486 11.9189H37.5042V11.7297C37.4313 10.973 37.0581 10.3243 36.3844 9.78378C35.7107 9.24324 34.946 8.97297 34.0902 8.97297Z" fill="black"/>
<path d="M59 12C59 14.2091 57.2091 16 55 16C52.7909 16 51 14.2091 51 12C51 9.79086 52.7909 8 55 8C57.2091 8 59 9.79086 59 12Z" fill="black"/>
</svg>
